<?xml version="1.0" standalone="no"?>
<!DOCTYPE svg PUBLIC "-//W3C//DTD SVG 20010904//EN"
        "http://www.w3.org/TR/2001/REC-SVG-20010904/DTD/svg10.dtd">
<svg version="1.0" xmlns="http://www.w3.org/2000/svg"
     width="512.000000pt" height="512.000000pt" viewBox="0 0 512.000000 512.000000"
     preserveAspectRatio="xMidYMid meet">
    <metadata>
        Created by potrace 1.14, written by Peter Selinger 2001-2017
    </metadata>
    <g transform="translate(0.000000,512.000000) scale(0.100000,-0.100000)"
       fill="#000000" stroke="none">
        <path d="M2315 5109 c-798 -82 -1502 -519 -1927 -1196 -469 -746 -515 -1705
-119 -2493 453 -902 1382 -1454 2381 -1417 831 32 1578 449 2042 1142 209 312
353 697 410 1100 17 118 17 512 0 630 -95 667 -405 1233 -903 1650 -364 304
-791 495 -1279 570 -126 19 -477 28 -605 14z m540 -275 c1020 -123 1846 -948
1980 -1979 18 -140 21 -422 5 -551 -53 -433 -213 -823 -475 -1159 -368 -470
-917 -783 -1510 -860 -156 -20 -434 -20 -590 0 -432 56 -846 239 -1185 523
-432 361 -721 891 -795 1457 -20 156 -20 435 0 589 53 399 205 771 448 1095
82 109 288 321 393 403 495 391 1096 558 1729 482z"/>
        <path d="M2395 4670 c-745 -62 -1396 -500 -1728 -1165 -151 -303 -219 -598
-219 -945 0 -577 211 -1090 617 -1495 364 -364 822 -574 1348 -617 656 -53
1339 237 1767 749 695 833 657 2028 -91 2828 -253 270 -648 499 -1019 588
-211 52 -473 74 -675 57z m433 -716 c151 -30 301 -109 419 -218 290 -269 366
-688 190 -1041 -108 -216 -310 -385 -549 -457 -68 -20 -97 -22 -420 -26 l-348
-3 0 -413 c0 -462 -2 -480 -67 -555 -102 -120 -288 -121 -394 -4 -75 82 -70
-12 -67 1338 3 1146 4 1212 21 1246 24 49 80 103 131 129 40 19 58 20 524 20
399 0 496 -3 560 -16z"/>
        <path d="M2120 3090 l0 -351 313 3 312 3 58 29 c70 36 130 99 165 174 23 48
27 71 27 142 0 76 -4 93 -33 152 -36 74 -95 132 -170 170 -46 22 -55 23 -359
26 l-313 3 0 -351z"/>
    </g>
</svg>
